<svg xmlns="http://www.w3.org/2000/svg" xmlns:xlink="http://www.w3.org/1999/xlink" width="168" zoomAndPan="magnify" viewBox="0 0 126 95.999999" height="128" preserveAspectRatio="xMidYMid meet" version="1.0"><defs><g/></defs><g fill="#004aad" fill-opacity="1"><g transform="translate(61.435252, 64.841485)"><g><path d="M 17.625 1.046875 C 14.144531 1.046875 11.207031 0.359375 8.8125 -1.015625 C 6.414062 -2.390625 4.59375 -4.414062 3.34375 -7.09375 C 2.09375 -9.769531 1.46875 -13.039062 1.46875 -16.90625 C 1.46875 -20.800781 2.082031 -24.066406 3.3125 -26.703125 C 4.550781 -29.335938 6.351562 -31.328125 8.71875 -32.671875 C 11.09375 -34.023438 13.988281 -34.703125 17.40625 -34.703125 C 19.570312 -34.703125 21.671875 -34.421875 23.703125 -33.859375 C 25.734375 -33.296875 27.742188 -32.457031 29.734375 -31.34375 L 28.390625 -28.859375 C 26.597656 -29.835938 24.832031 -30.5625 23.09375 -31.03125 C 21.351562 -31.507812 19.554688 -31.75 17.703125 -31.75 C 13.503906 -31.75 10.320312 -30.492188 8.15625 -27.984375 C 6 -25.484375 4.921875 -21.804688 4.921875 -16.953125 C 4.921875 -13.722656 5.414062 -10.988281 6.40625 -8.75 C 7.40625 -6.507812 8.875 -4.804688 10.8125 -3.640625 C 12.75 -2.472656 15.117188 -1.890625 17.921875 -1.890625 C 21.734375 -1.890625 25.296875 -3 28.609375 -5.21875 L 30.03125 -2.6875 C 27.957031 -1.394531 25.945312 -0.453125 24 0.140625 C 22.050781 0.742188 19.925781 1.046875 17.625 1.046875 Z M 18.046875 -4.171875 C 14.617188 -4.171875 12.007812 -5.25 10.21875 -7.40625 C 8.425781 -9.5625 7.53125 -12.742188 7.53125 -16.953125 C 7.53125 -21.128906 8.425781 -24.257812 10.21875 -26.34375 C 12.007812 -28.4375 14.601562 -29.484375 18 -29.484375 C 21.195312 -29.484375 24.253906 -28.554688 27.171875 -26.703125 L 25.75 -24.140625 C 24.457031 -24.984375 23.210938 -25.59375 22.015625 -25.96875 C 20.828125 -26.351562 19.601562 -26.546875 18.34375 -26.546875 C 16.6875 -26.546875 15.316406 -26.226562 14.234375 -25.59375 C 13.160156 -24.96875 12.347656 -23.945312 11.796875 -22.53125 C 11.253906 -21.113281 10.984375 -19.253906 10.984375 -16.953125 C 10.984375 -13.472656 11.597656 -10.960938 12.828125 -9.421875 C 14.066406 -7.878906 15.875 -7.109375 18.25 -7.109375 C 20.96875 -7.109375 23.535156 -7.992188 25.953125 -9.765625 L 27.375 -7.3125 C 25.78125 -6.21875 24.234375 -5.421875 22.734375 -4.921875 C 21.234375 -4.421875 19.671875 -4.171875 18.046875 -4.171875 Z M 18.046875 -4.171875 "/></g></g></g><g fill="#004aad" fill-opacity="1"><g transform="translate(42.084669, 64.841485)"><g><path d="M 20.359375 -33.65625 C 23.859375 -33.65625 26.460938 -32.894531 28.171875 -31.375 C 29.890625 -29.863281 30.75 -27.734375 30.75 -24.984375 C 30.75 -23.390625 30.410156 -21.957031 29.734375 -20.6875 C 29.066406 -19.425781 28.085938 -18.460938 26.796875 -17.796875 C 28.453125 -17.203125 29.710938 -16.21875 30.578125 -14.84375 C 31.453125 -13.46875 31.890625 -11.84375 31.890625 -9.96875 C 31.890625 -7.894531 31.445312 -6.109375 30.5625 -4.609375 C 29.675781 -3.109375 28.410156 -1.960938 26.765625 -1.171875 C 25.128906 -0.390625 23.191406 0 20.953125 0 L 2.53125 0 L 2.53125 -33.65625 Z M 20.78125 -2.9375 C 23.21875 -2.9375 25.113281 -3.566406 26.46875 -4.828125 C 27.832031 -6.097656 28.515625 -7.894531 28.515625 -10.21875 C 28.515625 -12.289062 27.925781 -13.878906 26.75 -14.984375 C 25.570312 -16.097656 23.691406 -16.851562 21.109375 -17.25 C 23.160156 -17.550781 24.71875 -18.289062 25.78125 -19.46875 C 26.84375 -20.644531 27.375 -22.242188 27.375 -24.265625 C 27.375 -26.398438 26.742188 -28.003906 25.484375 -29.078125 C 24.222656 -30.160156 22.375 -30.703125 19.9375 -30.703125 L 5.890625 -30.703125 L 5.890625 -2.9375 Z M 19.515625 -28.34375 C 21.117188 -28.34375 22.375 -27.957031 23.28125 -27.1875 C 24.195312 -26.414062 24.65625 -25.273438 24.65625 -23.765625 C 24.65625 -22.054688 24.082031 -20.707031 22.9375 -19.71875 C 21.800781 -18.738281 20.128906 -18.25 17.921875 -18.25 L 8.40625 -18.25 L 8.40625 -28.34375 Z M 18.59375 -21.203125 C 20.332031 -21.203125 21.203125 -21.898438 21.203125 -23.296875 C 21.203125 -24.703125 20.332031 -25.40625 18.59375 -25.40625 L 11.78125 -25.40625 L 11.78125 -21.203125 Z M 19.46875 -15.90625 C 21.46875 -15.90625 23.019531 -15.429688 24.125 -14.484375 C 25.226562 -13.546875 25.78125 -12.164062 25.78125 -10.34375 C 25.78125 -8.6875 25.316406 -7.429688 24.390625 -6.578125 C 23.472656 -5.722656 22.101562 -5.296875 20.28125 -5.296875 L 8.40625 -5.296875 L 8.40625 -15.90625 Z M 18.921875 -8.25 C 20.097656 -8.25 20.957031 -8.4375 21.5 -8.8125 C 22.050781 -9.1875 22.328125 -9.78125 22.328125 -10.59375 C 22.328125 -11.40625 22.050781 -12 21.5 -12.375 C 20.957031 -12.757812 20.097656 -12.953125 18.921875 -12.953125 L 11.78125 -12.953125 L 11.78125 -8.25 Z M 18.921875 -8.25 "/></g></g></g><g fill="#004aad" fill-opacity="1"><g transform="translate(33.388732, 64.841485)"><g><path d="M 30.703125 -33.65625 L 30.703125 -30.703125 L 0.625 -30.703125 L 0.625 -33.65625 Z M 0.625 -25.40625 L 0.625 -28.34375 L 14.421875 -28.34375 L 14.421875 0 L 11.0625 0 L 11.0625 -25.40625 Z M 30.703125 -28.34375 L 30.703125 -25.40625 L 20.3125 -25.40625 L 20.3125 0 L 16.953125 0 L 16.953125 -28.34375 Z M 30.703125 -28.34375 "/></g></g></g></svg>