<svg xmlns="http://www.w3.org/2000/svg" xmlns:xlink="http://www.w3.org/1999/xlink" width="171" zoomAndPan="magnify" viewBox="0 0 128.25 95.999999" height="128" preserveAspectRatio="xMidYMid meet" version="1.0"><defs><g/></defs><g fill="#004aad" fill-opacity="1"><g transform="translate(61.07807, 64.743569)"><g><path d="M 17.515625 1.046875 C 14.054688 1.046875 11.132812 0.363281 8.75 -1 C 6.375 -2.363281 4.566406 -4.375 3.328125 -7.03125 C 2.085938 -9.695312 1.46875 -12.957031 1.46875 -16.8125 C 1.46875 -20.6875 2.078125 -23.929688 3.296875 -26.546875 C 4.523438 -29.171875 6.316406 -31.148438 8.671875 -32.484375 C 11.023438 -33.828125 13.90625 -34.5 17.3125 -34.5 C 19.457031 -34.5 21.539062 -34.21875 23.5625 -33.65625 C 25.582031 -33.101562 27.582031 -32.269531 29.5625 -31.15625 L 28.21875 -28.6875 C 26.4375 -29.65625 24.679688 -30.375 22.953125 -30.84375 C 21.222656 -31.320312 19.441406 -31.5625 17.609375 -31.5625 C 13.421875 -31.5625 10.253906 -30.3125 8.109375 -27.8125 C 5.960938 -25.320312 4.890625 -21.664062 4.890625 -16.84375 C 4.890625 -13.644531 5.382812 -10.929688 6.375 -8.703125 C 7.363281 -6.472656 8.816406 -4.773438 10.734375 -3.609375 C 12.660156 -2.453125 15.019531 -1.875 17.8125 -1.875 C 21.601562 -1.875 25.144531 -2.976562 28.4375 -5.1875 L 29.859375 -2.671875 C 27.796875 -1.390625 25.796875 -0.453125 23.859375 0.140625 C 21.921875 0.742188 19.804688 1.046875 17.515625 1.046875 Z M 17.9375 -4.140625 C 14.539062 -4.140625 11.945312 -5.210938 10.15625 -7.359375 C 8.375 -9.503906 7.484375 -12.664062 7.484375 -16.84375 C 7.484375 -21 8.375 -24.113281 10.15625 -26.1875 C 11.945312 -28.269531 14.523438 -29.3125 17.890625 -29.3125 C 21.066406 -29.3125 24.109375 -28.390625 27.015625 -26.546875 L 25.59375 -24 C 24.3125 -24.832031 23.078125 -25.4375 21.890625 -25.8125 C 20.703125 -26.195312 19.484375 -26.390625 18.234375 -26.390625 C 16.585938 -26.390625 15.226562 -26.070312 14.15625 -25.4375 C 13.082031 -24.8125 12.269531 -23.796875 11.71875 -22.390625 C 11.175781 -20.984375 10.90625 -19.132812 10.90625 -16.84375 C 10.90625 -13.394531 11.519531 -10.898438 12.75 -9.359375 C 13.976562 -7.828125 15.773438 -7.0625 18.140625 -7.0625 C 20.847656 -7.0625 23.398438 -7.941406 25.796875 -9.703125 L 27.21875 -7.28125 C 25.632812 -6.1875 24.09375 -5.390625 22.59375 -4.890625 C 21.101562 -4.390625 19.550781 -4.140625 17.9375 -4.140625 Z M 17.9375 -4.140625 "/></g></g></g><g fill="#004aad" fill-opacity="1"><g transform="translate(41.83999, 64.743569)"><g><path d="M 20.234375 -33.453125 C 23.722656 -33.453125 26.316406 -32.695312 28.015625 -31.1875 C 29.710938 -29.6875 30.5625 -27.570312 30.5625 -24.84375 C 30.5625 -23.25 30.226562 -21.820312 29.5625 -20.5625 C 28.894531 -19.3125 27.921875 -18.351562 26.640625 -17.6875 C 28.273438 -17.101562 29.523438 -16.128906 30.390625 -14.765625 C 31.253906 -13.398438 31.6875 -11.78125 31.6875 -9.90625 C 31.6875 -7.84375 31.25 -6.066406 30.375 -4.578125 C 29.5 -3.085938 28.242188 -1.953125 26.609375 -1.171875 C 24.984375 -0.390625 23.054688 0 20.828125 0 L 2.515625 0 L 2.515625 -33.453125 Z M 20.65625 -2.921875 C 23.082031 -2.921875 24.96875 -3.546875 26.3125 -4.796875 C 27.664062 -6.054688 28.34375 -7.84375 28.34375 -10.15625 C 28.34375 -12.21875 27.757812 -13.800781 26.59375 -14.90625 C 25.425781 -16.007812 23.554688 -16.753906 20.984375 -17.140625 C 23.023438 -17.453125 24.570312 -18.191406 25.625 -19.359375 C 26.6875 -20.523438 27.21875 -22.113281 27.21875 -24.125 C 27.21875 -26.238281 26.585938 -27.832031 25.328125 -28.90625 C 24.078125 -29.976562 22.238281 -30.515625 19.8125 -30.515625 L 5.859375 -30.515625 L 5.859375 -2.921875 Z M 19.40625 -28.1875 C 20.988281 -28.1875 22.234375 -27.800781 23.140625 -27.03125 C 24.046875 -26.257812 24.5 -25.125 24.5 -23.625 C 24.5 -21.925781 23.929688 -20.585938 22.796875 -19.609375 C 21.671875 -18.628906 20.007812 -18.140625 17.8125 -18.140625 L 8.359375 -18.140625 L 8.359375 -28.1875 Z M 18.484375 -21.078125 C 20.210938 -21.078125 21.078125 -21.773438 21.078125 -23.171875 C 21.078125 -24.554688 20.210938 -25.25 18.484375 -25.25 L 11.703125 -25.25 L 11.703125 -21.078125 Z M 19.359375 -15.8125 C 21.335938 -15.8125 22.875 -15.34375 23.96875 -14.40625 C 25.070312 -13.46875 25.625 -12.09375 25.625 -10.28125 C 25.625 -8.632812 25.164062 -7.382812 24.25 -6.53125 C 23.332031 -5.6875 21.96875 -5.265625 20.15625 -5.265625 L 8.359375 -5.265625 L 8.359375 -15.8125 Z M 18.8125 -8.1875 C 19.988281 -8.1875 20.847656 -8.375 21.390625 -8.75 C 21.929688 -9.132812 22.203125 -9.726562 22.203125 -10.53125 C 22.203125 -11.34375 21.929688 -11.9375 21.390625 -12.3125 C 20.847656 -12.6875 19.988281 -12.875 18.8125 -12.875 L 11.703125 -12.875 L 11.703125 -8.1875 Z M 18.8125 -8.1875 "/></g></g></g><g fill="#004aad" fill-opacity="1"><g transform="translate(33.194611, 64.743569)"><g><path d="M 30.515625 -33.453125 L 30.515625 -30.515625 L 0.625 -30.515625 L 0.625 -33.453125 Z M 0.625 -25.25 L 0.625 -28.1875 L 14.34375 -28.1875 L 14.34375 0 L 11 0 L 11 -25.25 Z M 30.515625 -28.1875 L 30.515625 -25.25 L 20.203125 -25.25 L 20.203125 0 L 16.84375 0 L 16.84375 -28.1875 Z M 30.515625 -28.1875 "/></g></g></g><g fill="#000000" fill-opacity="1"><g transform="translate(9.691115, 79.503094)"><g><path d="M 2.40625 -6.015625 L 0.046875 -6.015625 L 0.046875 -7.40625 L 6.5 -7.40625 L 6.5 -6.015625 L 4.125 -6.015625 L 4.125 0 L 2.40625 0 Z M 2.40625 -6.015625 "/></g></g></g><g fill="#000000" fill-opacity="1"><g transform="translate(16.228817, 79.503094)"><g><path d="M 4.21875 -5.78125 C 4.925781 -5.78125 5.492188 -5.566406 5.921875 -5.140625 C 6.359375 -4.710938 6.578125 -4.085938 6.578125 -3.265625 L 6.578125 0 L 4.921875 0 L 4.921875 -3 C 4.921875 -3.457031 4.820312 -3.796875 4.625 -4.015625 C 4.4375 -4.234375 4.15625 -4.34375 3.78125 -4.34375 C 3.363281 -4.34375 3.03125 -4.210938 2.78125 -3.953125 C 2.53125 -3.703125 2.40625 -3.320312 2.40625 -2.8125 L 2.40625 0 L 0.765625 0 L 0.765625 -7.84375 L 2.40625 -7.84375 L 2.40625 -5.09375 C 2.625 -5.3125 2.890625 -5.476562 3.203125 -5.59375 C 3.515625 -5.71875 3.851562 -5.78125 4.21875 -5.78125 Z M 4.21875 -5.78125 "/></g></g></g><g fill="#000000" fill-opacity="1"><g transform="translate(23.538783, 79.503094)"><g><path d="M 6.34375 -2.828125 C 6.34375 -2.804688 6.328125 -2.65625 6.296875 -2.375 L 2 -2.375 C 2.070312 -2.019531 2.253906 -1.738281 2.546875 -1.53125 C 2.835938 -1.332031 3.195312 -1.234375 3.625 -1.234375 C 3.925781 -1.234375 4.191406 -1.273438 4.421875 -1.359375 C 4.648438 -1.453125 4.863281 -1.59375 5.0625 -1.78125 L 5.9375 -0.828125 C 5.394531 -0.222656 4.613281 0.078125 3.59375 0.078125 C 2.945312 0.078125 2.375 -0.046875 1.875 -0.296875 C 1.382812 -0.546875 1.003906 -0.890625 0.734375 -1.328125 C 0.472656 -1.773438 0.34375 -2.28125 0.34375 -2.84375 C 0.34375 -3.40625 0.472656 -3.910156 0.734375 -4.359375 C 0.992188 -4.804688 1.351562 -5.15625 1.8125 -5.40625 C 2.28125 -5.65625 2.800781 -5.78125 3.375 -5.78125 C 3.925781 -5.78125 4.425781 -5.660156 4.875 -5.421875 C 5.332031 -5.179688 5.691406 -4.835938 5.953125 -4.390625 C 6.210938 -3.941406 6.34375 -3.421875 6.34375 -2.828125 Z M 3.390625 -4.53125 C 3.015625 -4.53125 2.695312 -4.421875 2.4375 -4.203125 C 2.1875 -3.992188 2.035156 -3.707031 1.984375 -3.34375 L 4.78125 -3.34375 C 4.726562 -3.695312 4.570312 -3.984375 4.3125 -4.203125 C 4.0625 -4.421875 3.753906 -4.53125 3.390625 -4.53125 Z M 3.390625 -4.53125 "/></g></g></g><g fill="#000000" fill-opacity="1"><g transform="translate(30.214018, 79.503094)"><g/></g></g><g fill="#000000" fill-opacity="1"><g transform="translate(33.207829, 79.503094)"><g><path d="M 6.3125 -3.84375 C 6.738281 -3.71875 7.070312 -3.492188 7.3125 -3.171875 C 7.550781 -2.859375 7.671875 -2.472656 7.671875 -2.015625 C 7.671875 -1.367188 7.414062 -0.867188 6.90625 -0.515625 C 6.40625 -0.171875 5.671875 0 4.703125 0 L 0.875 0 L 0.875 -7.40625 L 4.5 -7.40625 C 5.394531 -7.40625 6.082031 -7.234375 6.5625 -6.890625 C 7.050781 -6.546875 7.296875 -6.078125 7.296875 -5.484375 C 7.296875 -5.117188 7.207031 -4.796875 7.03125 -4.515625 C 6.863281 -4.234375 6.625 -4.007812 6.3125 -3.84375 Z M 2.578125 -6.109375 L 2.578125 -4.375 L 4.28125 -4.375 C 4.707031 -4.375 5.03125 -4.445312 5.25 -4.59375 C 5.46875 -4.738281 5.578125 -4.957031 5.578125 -5.25 C 5.578125 -5.539062 5.46875 -5.753906 5.25 -5.890625 C 5.03125 -6.035156 4.707031 -6.109375 4.28125 -6.109375 Z M 4.578125 -1.296875 C 5.023438 -1.296875 5.363281 -1.367188 5.59375 -1.515625 C 5.820312 -1.660156 5.9375 -1.890625 5.9375 -2.203125 C 5.9375 -2.816406 5.484375 -3.125 4.578125 -3.125 L 2.578125 -3.125 L 2.578125 -1.296875 Z M 4.578125 -1.296875 "/></g></g></g><g fill="#000000" fill-opacity="1"><g transform="translate(41.300627, 79.503094)"><g><path d="M 6.34375 -2.828125 C 6.34375 -2.804688 6.328125 -2.65625 6.296875 -2.375 L 2 -2.375 C 2.070312 -2.019531 2.253906 -1.738281 2.546875 -1.53125 C 2.835938 -1.332031 3.195312 -1.234375 3.625 -1.234375 C 3.925781 -1.234375 4.191406 -1.273438 4.421875 -1.359375 C 4.648438 -1.453125 4.863281 -1.59375 5.0625 -1.78125 L 5.9375 -0.828125 C 5.394531 -0.222656 4.613281 0.078125 3.59375 0.078125 C 2.945312 0.078125 2.375 -0.046875 1.875 -0.296875 C 1.382812 -0.546875 1.003906 -0.890625 0.734375 -1.328125 C 0.472656 -1.773438 0.34375 -2.28125 0.34375 -2.84375 C 0.34375 -3.40625 0.472656 -3.910156 0.734375 -4.359375 C 0.992188 -4.804688 1.351562 -5.15625 1.8125 -5.40625 C 2.28125 -5.65625 2.800781 -5.78125 3.375 -5.78125 C 3.925781 -5.78125 4.425781 -5.660156 4.875 -5.421875 C 5.332031 -5.179688 5.691406 -4.835938 5.953125 -4.390625 C 6.210938 -3.941406 6.34375 -3.421875 6.34375 -2.828125 Z M 3.390625 -4.53125 C 3.015625 -4.53125 2.695312 -4.421875 2.4375 -4.203125 C 2.1875 -3.992188 2.035156 -3.707031 1.984375 -3.34375 L 4.78125 -3.34375 C 4.726562 -3.695312 4.570312 -3.984375 4.3125 -4.203125 C 4.0625 -4.421875 3.753906 -4.53125 3.390625 -4.53125 Z M 3.390625 -4.53125 "/></g></g></g><g fill="#000000" fill-opacity="1"><g transform="translate(47.975862, 79.503094)"><g><path d="M 4.21875 -5.78125 C 4.925781 -5.78125 5.492188 -5.566406 5.921875 -5.140625 C 6.359375 -4.710938 6.578125 -4.085938 6.578125 -3.265625 L 6.578125 0 L 4.921875 0 L 4.921875 -3 C 4.921875 -3.457031 4.820312 -3.796875 4.625 -4.015625 C 4.4375 -4.234375 4.15625 -4.34375 3.78125 -4.34375 C 3.363281 -4.34375 3.03125 -4.210938 2.78125 -3.953125 C 2.53125 -3.703125 2.40625 -3.320312 2.40625 -2.8125 L 2.40625 0 L 0.765625 0 L 0.765625 -5.6875 L 2.34375 -5.6875 L 2.34375 -5.03125 C 2.5625 -5.269531 2.832031 -5.453125 3.15625 -5.578125 C 3.476562 -5.710938 3.832031 -5.78125 4.21875 -5.78125 Z M 4.21875 -5.78125 "/></g></g></g><g fill="#000000" fill-opacity="1"><g transform="translate(55.285828, 79.503094)"><g/></g></g><g fill="#000000" fill-opacity="1"><g transform="translate(58.279638, 79.503094)"><g><path d="M 4.421875 0.125 C 3.671875 0.125 2.988281 -0.0351562 2.375 -0.359375 C 1.757812 -0.691406 1.273438 -1.148438 0.921875 -1.734375 C 0.578125 -2.316406 0.40625 -2.972656 0.40625 -3.703125 C 0.40625 -4.429688 0.578125 -5.085938 0.921875 -5.671875 C 1.273438 -6.253906 1.757812 -6.707031 2.375 -7.03125 C 2.988281 -7.363281 3.675781 -7.53125 4.4375 -7.53125 C 5.070312 -7.53125 5.648438 -7.414062 6.171875 -7.1875 C 6.691406 -6.96875 7.128906 -6.644531 7.484375 -6.21875 L 6.375 -5.203125 C 5.875 -5.785156 5.253906 -6.078125 4.515625 -6.078125 C 4.054688 -6.078125 3.644531 -5.972656 3.28125 -5.765625 C 2.925781 -5.566406 2.644531 -5.285156 2.4375 -4.921875 C 2.238281 -4.566406 2.140625 -4.160156 2.140625 -3.703125 C 2.140625 -3.242188 2.238281 -2.832031 2.4375 -2.46875 C 2.644531 -2.113281 2.925781 -1.832031 3.28125 -1.625 C 3.644531 -1.425781 4.054688 -1.328125 4.515625 -1.328125 C 5.253906 -1.328125 5.875 -1.617188 6.375 -2.203125 L 7.484375 -1.203125 C 7.128906 -0.765625 6.691406 -0.429688 6.171875 -0.203125 C 5.648438 0.015625 5.066406 0.125 4.421875 0.125 Z M 4.421875 0.125 "/></g></g></g><g fill="#000000" fill-opacity="1"><g transform="translate(66.033909, 79.503094)"><g><path d="M 3.46875 0.078125 C 2.875 0.078125 2.335938 -0.046875 1.859375 -0.296875 C 1.378906 -0.546875 1.003906 -0.890625 0.734375 -1.328125 C 0.472656 -1.773438 0.34375 -2.28125 0.34375 -2.84375 C 0.34375 -3.40625 0.472656 -3.910156 0.734375 -4.359375 C 1.003906 -4.804688 1.378906 -5.15625 1.859375 -5.40625 C 2.335938 -5.65625 2.875 -5.78125 3.46875 -5.78125 C 4.070312 -5.78125 4.609375 -5.65625 5.078125 -5.40625 C 5.546875 -5.15625 5.914062 -4.804688 6.1875 -4.359375 C 6.457031 -3.910156 6.59375 -3.40625 6.59375 -2.84375 C 6.59375 -2.28125 6.457031 -1.773438 6.1875 -1.328125 C 5.914062 -0.890625 5.546875 -0.546875 5.078125 -0.296875 C 4.609375 -0.046875 4.070312 0.078125 3.46875 0.078125 Z M 3.46875 -1.265625 C 3.894531 -1.265625 4.242188 -1.40625 4.515625 -1.6875 C 4.785156 -1.976562 4.921875 -2.363281 4.921875 -2.84375 C 4.921875 -3.320312 4.785156 -3.703125 4.515625 -3.984375 C 4.242188 -4.273438 3.894531 -4.421875 3.46875 -4.421875 C 3.039062 -4.421875 2.691406 -4.273438 2.421875 -3.984375 C 2.148438 -3.703125 2.015625 -3.320312 2.015625 -2.84375 C 2.015625 -2.363281 2.148438 -1.976562 2.421875 -1.6875 C 2.691406 -1.40625 3.039062 -1.265625 3.46875 -1.265625 Z M 3.46875 -1.265625 "/></g></g></g><g fill="#000000" fill-opacity="1"><g transform="translate(72.963034, 79.503094)"><g><path d="M 4.21875 -5.78125 C 4.925781 -5.78125 5.492188 -5.566406 5.921875 -5.140625 C 6.359375 -4.710938 6.578125 -4.085938 6.578125 -3.265625 L 6.578125 0 L 4.921875 0 L 4.921875 -3 C 4.921875 -3.457031 4.820312 -3.796875 4.625 -4.015625 C 4.4375 -4.234375 4.15625 -4.34375 3.78125 -4.34375 C 3.363281 -4.34375 3.03125 -4.210938 2.78125 -3.953125 C 2.53125 -3.703125 2.40625 -3.320312 2.40625 -2.8125 L 2.40625 0 L 0.765625 0 L 0.765625 -5.6875 L 2.34375 -5.6875 L 2.34375 -5.03125 C 2.5625 -5.269531 2.832031 -5.453125 3.15625 -5.578125 C 3.476562 -5.710938 3.832031 -5.78125 4.21875 -5.78125 Z M 4.21875 -5.78125 "/></g></g></g><g fill="#000000" fill-opacity="1"><g transform="translate(80.273, 79.503094)"><g><path d="M 3.515625 0.078125 C 2.910156 0.078125 2.363281 -0.046875 1.875 -0.296875 C 1.394531 -0.546875 1.019531 -0.890625 0.75 -1.328125 C 0.476562 -1.773438 0.34375 -2.28125 0.34375 -2.84375 C 0.34375 -3.40625 0.476562 -3.910156 0.75 -4.359375 C 1.019531 -4.804688 1.394531 -5.15625 1.875 -5.40625 C 2.363281 -5.65625 2.910156 -5.78125 3.515625 -5.78125 C 4.109375 -5.78125 4.628906 -5.65625 5.078125 -5.40625 C 5.523438 -5.15625 5.851562 -4.796875 6.0625 -4.328125 L 4.78125 -3.640625 C 4.488281 -4.160156 4.0625 -4.421875 3.5 -4.421875 C 3.070312 -4.421875 2.71875 -4.28125 2.4375 -4 C 2.15625 -3.71875 2.015625 -3.332031 2.015625 -2.84375 C 2.015625 -2.351562 2.15625 -1.96875 2.4375 -1.6875 C 2.71875 -1.40625 3.070312 -1.265625 3.5 -1.265625 C 4.0625 -1.265625 4.488281 -1.523438 4.78125 -2.046875 L 6.0625 -1.359375 C 5.851562 -0.898438 5.523438 -0.546875 5.078125 -0.296875 C 4.628906 -0.046875 4.109375 0.078125 3.515625 0.078125 Z M 3.515625 0.078125 "/></g></g></g><g fill="#000000" fill-opacity="1"><g transform="translate(86.525081, 79.503094)"><g><path d="M 6.34375 -2.828125 C 6.34375 -2.804688 6.328125 -2.65625 6.296875 -2.375 L 2 -2.375 C 2.070312 -2.019531 2.253906 -1.738281 2.546875 -1.53125 C 2.835938 -1.332031 3.195312 -1.234375 3.625 -1.234375 C 3.925781 -1.234375 4.191406 -1.273438 4.421875 -1.359375 C 4.648438 -1.453125 4.863281 -1.59375 5.0625 -1.78125 L 5.9375 -0.828125 C 5.394531 -0.222656 4.613281 0.078125 3.59375 0.078125 C 2.945312 0.078125 2.375 -0.046875 1.875 -0.296875 C 1.382812 -0.546875 1.003906 -0.890625 0.734375 -1.328125 C 0.472656 -1.773438 0.34375 -2.28125 0.34375 -2.84375 C 0.34375 -3.40625 0.472656 -3.910156 0.734375 -4.359375 C 0.992188 -4.804688 1.351562 -5.15625 1.8125 -5.40625 C 2.28125 -5.65625 2.800781 -5.78125 3.375 -5.78125 C 3.925781 -5.78125 4.425781 -5.660156 4.875 -5.421875 C 5.332031 -5.179688 5.691406 -4.835938 5.953125 -4.390625 C 6.210938 -3.941406 6.34375 -3.421875 6.34375 -2.828125 Z M 3.390625 -4.53125 C 3.015625 -4.53125 2.695312 -4.421875 2.4375 -4.203125 C 2.1875 -3.992188 2.035156 -3.707031 1.984375 -3.34375 L 4.78125 -3.34375 C 4.726562 -3.695312 4.570312 -3.984375 4.3125 -4.203125 C 4.0625 -4.421875 3.753906 -4.53125 3.390625 -4.53125 Z M 3.390625 -4.53125 "/></g></g></g><g fill="#000000" fill-opacity="1"><g transform="translate(93.200316, 79.503094)"><g><path d="M 4.125 -5.78125 C 4.65625 -5.78125 5.132812 -5.65625 5.5625 -5.40625 C 6 -5.164062 6.335938 -4.820312 6.578125 -4.375 C 6.828125 -3.9375 6.953125 -3.425781 6.953125 -2.84375 C 6.953125 -2.257812 6.828125 -1.742188 6.578125 -1.296875 C 6.335938 -0.859375 6 -0.519531 5.5625 -0.28125 C 5.132812 -0.0390625 4.65625 0.078125 4.125 0.078125 C 3.394531 0.078125 2.820312 -0.148438 2.40625 -0.609375 L 2.40625 2.046875 L 0.765625 2.046875 L 0.765625 -5.6875 L 2.34375 -5.6875 L 2.34375 -5.03125 C 2.75 -5.53125 3.34375 -5.78125 4.125 -5.78125 Z M 3.84375 -1.265625 C 4.257812 -1.265625 4.601562 -1.40625 4.875 -1.6875 C 5.15625 -1.976562 5.296875 -2.363281 5.296875 -2.84375 C 5.296875 -3.320312 5.15625 -3.703125 4.875 -3.984375 C 4.601562 -4.273438 4.257812 -4.421875 3.84375 -4.421875 C 3.414062 -4.421875 3.066406 -4.273438 2.796875 -3.984375 C 2.523438 -3.703125 2.390625 -3.320312 2.390625 -2.84375 C 2.390625 -2.363281 2.523438 -1.976562 2.796875 -1.6875 C 3.066406 -1.40625 3.414062 -1.265625 3.84375 -1.265625 Z M 3.84375 -1.265625 "/></g></g></g><g fill="#000000" fill-opacity="1"><g transform="translate(100.4997, 79.503094)"><g><path d="M 4.4375 -0.28125 C 4.269531 -0.15625 4.066406 -0.0625 3.828125 0 C 3.597656 0.0507812 3.351562 0.078125 3.09375 0.078125 C 2.414062 0.078125 1.890625 -0.09375 1.515625 -0.4375 C 1.148438 -0.78125 0.96875 -1.285156 0.96875 -1.953125 L 0.96875 -4.296875 L 0.078125 -4.296875 L 0.078125 -5.5625 L 0.96875 -5.5625 L 0.96875 -6.953125 L 2.609375 -6.953125 L 2.609375 -5.5625 L 4.03125 -5.5625 L 4.03125 -4.296875 L 2.609375 -4.296875 L 2.609375 -1.984375 C 2.609375 -1.742188 2.671875 -1.554688 2.796875 -1.421875 C 2.921875 -1.296875 3.097656 -1.234375 3.328125 -1.234375 C 3.585938 -1.234375 3.804688 -1.300781 3.984375 -1.4375 Z M 4.4375 -0.28125 "/></g></g></g><g fill="#000000" fill-opacity="1"><g transform="translate(105.101489, 79.503094)"><g><path d="M 2.671875 0.078125 C 2.203125 0.078125 1.738281 0.0195312 1.28125 -0.09375 C 0.832031 -0.207031 0.476562 -0.351562 0.21875 -0.53125 L 0.765625 -1.71875 C 1.015625 -1.550781 1.316406 -1.414062 1.671875 -1.3125 C 2.035156 -1.207031 2.390625 -1.15625 2.734375 -1.15625 C 3.429688 -1.15625 3.78125 -1.332031 3.78125 -1.6875 C 3.78125 -1.84375 3.6875 -1.957031 3.5 -2.03125 C 3.3125 -2.101562 3.019531 -2.160156 2.625 -2.203125 C 2.15625 -2.273438 1.769531 -2.359375 1.46875 -2.453125 C 1.164062 -2.546875 0.898438 -2.707031 0.671875 -2.9375 C 0.453125 -3.175781 0.34375 -3.507812 0.34375 -3.9375 C 0.34375 -4.289062 0.445312 -4.609375 0.65625 -4.890625 C 0.863281 -5.171875 1.164062 -5.390625 1.5625 -5.546875 C 1.96875 -5.703125 2.441406 -5.78125 2.984375 -5.78125 C 3.390625 -5.78125 3.789062 -5.734375 4.1875 -5.640625 C 4.582031 -5.554688 4.910156 -5.4375 5.171875 -5.28125 L 4.625 -4.109375 C 4.125 -4.390625 3.578125 -4.53125 2.984375 -4.53125 C 2.628906 -4.53125 2.363281 -4.476562 2.1875 -4.375 C 2.007812 -4.28125 1.921875 -4.15625 1.921875 -4 C 1.921875 -3.820312 2.015625 -3.695312 2.203125 -3.625 C 2.398438 -3.550781 2.707031 -3.484375 3.125 -3.421875 C 3.582031 -3.347656 3.957031 -3.265625 4.25 -3.171875 C 4.550781 -3.085938 4.8125 -2.925781 5.03125 -2.6875 C 5.25 -2.457031 5.359375 -2.132812 5.359375 -1.71875 C 5.359375 -1.375 5.253906 -1.0625 5.046875 -0.78125 C 4.835938 -0.507812 4.53125 -0.296875 4.125 -0.140625 C 3.71875 0.00390625 3.234375 0.078125 2.671875 0.078125 Z M 2.671875 0.078125 "/></g></g></g></svg>