<svg xmlns="http://www.w3.org/2000/svg" xmlns:xlink="http://www.w3.org/1999/xlink" width="172" zoomAndPan="magnify" viewBox="0 0 129 215.249992" height="287" preserveAspectRatio="xMidYMid meet" version="1.0"><defs><g/><clipPath id="823c1cb8cf"><path d="M 0.441406 1 L 128.246094 1 L 128.246094 42 L 0.441406 42 Z M 0.441406 1 " clip-rule="nonzero"/></clipPath><clipPath id="a0e838a981"><path d="M 65 85 L 111 85 L 111 149.507812 L 65 149.507812 Z M 65 85 " clip-rule="nonzero"/></clipPath><clipPath id="466355ca44"><path d="M 16 50 L 111 50 L 111 149.507812 L 16 149.507812 Z M 16 50 " clip-rule="nonzero"/></clipPath></defs><g clip-path="url(#823c1cb8cf)"><path fill="#ffbd59" d="M 27.128906 41.324219 C 76.945312 41.101562 101.855469 41.660156 101.855469 41.660156 C 110.976562 13.6875 128.542969 1.960938 128.542969 1.960938 C 118.667969 0.457031 110.988281 5.628906 109.273438 17.550781 C 103.015625 7.269531 91.796875 15.304688 91.683594 19.882812 C 96.644531 16.378906 100.832031 20.058594 101.683594 24.636719 C 104.621094 40.335938 76.378906 35.96875 67.417969 28.363281 C 69.40625 27.167969 70.738281 24.996094 70.738281 22.5 C 70.738281 18.722656 67.675781 15.664062 63.898438 15.664062 C 60.121094 15.664062 57.0625 18.722656 57.0625 22.5 C 57.0625 25.03125 58.445312 27.253906 60.492188 28.425781 C 52.183594 35.5 26.003906 40.003906 27.164062 25.277344 C 27.558594 20.292969 31.992188 15.800781 37.3125 19.550781 C 37.199219 14.972656 25.96875 6.9375 19.710938 17.21875 C 17.996094 5.296875 10.316406 0.121094 0.441406 1.628906 C 0.441406 1.628906 18.007812 13.355469 27.128906 41.324219 Z M 27.128906 41.324219 " fill-opacity="1" fill-rule="evenodd"/></g><path fill="#ffbd59" d="M 45.296875 95.019531 L 61.492188 78.527344 L 61.492188 50.078125 L 16.710938 50.078125 L 16.710938 75.269531 L 26.574219 75.269531 L 26.574219 59.953125 L 51.617188 59.953125 L 51.617188 85.144531 L 16.710938 85.144531 L 16.710938 95.019531 Z M 45.296875 95.019531 " fill-opacity="1" fill-rule="evenodd"/><g clip-path="url(#a0e838a981)"><path fill="#ffbd59" d="M 81.4375 85.144531 L 65.996094 100.882812 L 65.996094 149.417969 L 75.871094 142.6875 L 110.777344 118.878906 L 110.777344 104.894531 L 100.90625 104.894531 L 100.90625 113.65625 L 75.871094 130.742188 L 75.871094 95.019531 L 110.777344 95.019531 L 110.777344 85.144531 Z M 81.4375 85.144531 " fill-opacity="1" fill-rule="evenodd"/></g><g clip-path="url(#466355ca44)"><path fill="#ffbd59" d="M 65.996094 50.078125 L 65.996094 80.390625 L 61.492188 84.972656 L 51.617188 95.019531 L 51.617188 130.742188 L 26.574219 113.65625 L 26.574219 104.894531 L 16.710938 104.894531 L 16.710938 118.878906 L 51.617188 142.6875 L 61.492188 149.417969 L 61.492188 99.042969 L 65.996094 94.449219 L 75.871094 84.390625 L 75.871094 59.953125 L 100.90625 59.953125 L 100.90625 75.269531 L 110.777344 75.269531 L 110.777344 50.078125 Z M 65.996094 50.078125 " fill-opacity="1" fill-rule="evenodd"/></g><g fill="#ffbd59" fill-opacity="1"><g transform="translate(28.265325, 192.810651)"><g><path d="M 14.84375 0 L 7.546875 0 L 7.546875 -21.0625 L 0.9375 -21.0625 L 0.9375 -27.03125 L 21.421875 -27.03125 L 21.421875 -21.0625 L 14.84375 -21.0625 Z M 14.84375 0 "/></g></g></g><g fill="#ffbd59" fill-opacity="1"><g transform="translate(50.63394, 192.810651)"><g><path d="M 2.921875 -27.03125 L 12.34375 -27.03125 C 16.019531 -27.03125 18.75 -26.484375 20.53125 -25.390625 C 22.3125 -24.296875 23.203125 -22.597656 23.203125 -20.296875 C 23.203125 -18.785156 22.8125 -17.492188 22.03125 -16.421875 C 21.257812 -15.347656 20.238281 -14.65625 18.96875 -14.34375 L 18.96875 -14.15625 C 20.644531 -13.71875 21.859375 -12.976562 22.609375 -11.9375 C 23.359375 -10.90625 23.734375 -9.5625 23.734375 -7.90625 C 23.734375 -5.457031 22.8125 -3.523438 20.96875 -2.109375 C 19.125 -0.703125 16.613281 0 13.4375 0 L 2.921875 0 Z M 10.21875 -16.65625 L 12.421875 -16.65625 C 13.472656 -16.65625 14.285156 -16.867188 14.859375 -17.296875 C 15.429688 -17.734375 15.71875 -18.375 15.71875 -19.21875 C 15.71875 -20.738281 14.570312 -21.5 12.28125 -21.5 L 10.21875 -21.5 Z M 10.21875 -11.3125 L 10.21875 -5.640625 L 12.796875 -5.640625 C 15.078125 -5.640625 16.21875 -6.597656 16.21875 -8.515625 C 16.21875 -9.421875 15.910156 -10.113281 15.296875 -10.59375 C 14.679688 -11.070312 13.796875 -11.3125 12.640625 -11.3125 Z M 10.21875 -11.3125 "/></g></g></g><g fill="#ffbd59" fill-opacity="1"><g transform="translate(76.145253, 192.810651)"><g><path d="M 14.953125 -21.421875 C 13.210938 -21.421875 11.851562 -20.707031 10.875 -19.28125 C 9.90625 -17.863281 9.421875 -15.90625 9.421875 -13.40625 C 9.421875 -8.195312 11.398438 -5.59375 15.359375 -5.59375 C 16.554688 -5.59375 17.710938 -5.757812 18.828125 -6.09375 C 19.953125 -6.425781 21.082031 -6.828125 22.21875 -7.296875 L 22.21875 -1.125 C 19.96875 -0.125 17.414062 0.375 14.5625 0.375 C 10.488281 0.375 7.363281 -0.804688 5.1875 -3.171875 C 3.007812 -5.546875 1.921875 -8.96875 1.921875 -13.4375 C 1.921875 -16.238281 2.445312 -18.695312 3.5 -20.8125 C 4.550781 -22.9375 6.066406 -24.566406 8.046875 -25.703125 C 10.023438 -26.847656 12.351562 -27.421875 15.03125 -27.421875 C 17.945312 -27.421875 20.738281 -26.785156 23.40625 -25.515625 L 21.171875 -19.765625 C 20.171875 -20.234375 19.171875 -20.625 18.171875 -20.9375 C 17.171875 -21.257812 16.097656 -21.421875 14.953125 -21.421875 Z M 14.953125 -21.421875 "/></g></g></g></svg>