<svg xmlns="http://www.w3.org/2000/svg" xmlns:xlink="http://www.w3.org/1999/xlink" width="424" zoomAndPan="magnify" viewBox="0 0 318 150.749998" height="201" preserveAspectRatio="xMidYMid meet" version="1.0"><defs><g/><clipPath id="69cf47b610"><path d="M 0.261719 0 L 317.734375 0 L 317.734375 150.5 L 0.261719 150.5 Z M 0.261719 0 " clip-rule="nonzero"/></clipPath><clipPath id="c545700258"><path d="M 0.988281 2 L 129.027344 2 L 129.027344 43 L 0.988281 43 Z M 0.988281 2 " clip-rule="nonzero"/></clipPath><clipPath id="6e15478b6a"><path d="M 66 85 L 112 85 L 112 150.472656 L 66 150.472656 Z M 66 85 " clip-rule="nonzero"/></clipPath><clipPath id="0f4207bce5"><path d="M 17 50 L 112 50 L 112 150.472656 L 17 150.472656 Z M 17 50 " clip-rule="nonzero"/></clipPath></defs><g clip-path="url(#69cf47b610)"><path fill="#ffffff" d="M 0.261719 0 L 317.738281 0 L 317.738281 150.5 L 0.261719 150.5 Z M 0.261719 0 " fill-opacity="1" fill-rule="nonzero"/></g><g clip-path="url(#c545700258)"><path fill="#000000" d="M 27.722656 42.09375 C 77.632812 41.871094 102.585938 42.425781 102.585938 42.425781 C 111.726562 14.40625 129.320312 2.660156 129.320312 2.660156 C 119.429688 1.148438 111.738281 6.332031 110.019531 18.277344 C 103.75 7.976562 92.507812 16.027344 92.398438 20.613281 C 97.367188 17.101562 101.558594 20.785156 102.414062 25.375 C 105.355469 41.105469 77.0625 36.726562 68.085938 29.109375 C 70.078125 27.910156 71.410156 25.734375 71.410156 23.234375 C 71.410156 19.449219 68.34375 16.382812 64.5625 16.382812 C 60.777344 16.382812 57.710938 19.449219 57.710938 23.234375 C 57.710938 25.769531 59.09375 27.996094 61.148438 29.171875 C 52.824219 36.257812 26.597656 40.769531 27.761719 26.015625 C 28.15625 21.019531 32.59375 16.519531 37.925781 20.277344 C 37.8125 15.691406 26.5625 7.640625 20.292969 17.941406 C 18.574219 5.996094 10.882812 0.816406 0.988281 2.324219 C 0.988281 2.324219 18.585938 14.070312 27.722656 42.09375 Z M 27.722656 42.09375 " fill-opacity="1" fill-rule="evenodd"/></g><path fill="#000000" d="M 45.925781 95.882812 L 62.148438 79.363281 L 62.148438 50.859375 L 17.285156 50.859375 L 17.285156 76.097656 L 27.167969 76.097656 L 27.167969 60.753906 L 52.257812 60.753906 L 52.257812 85.992188 L 17.285156 85.992188 L 17.285156 95.882812 Z M 45.925781 95.882812 " fill-opacity="1" fill-rule="evenodd"/><g clip-path="url(#6e15478b6a)"><path fill="#000000" d="M 82.132812 85.992188 L 66.664062 101.757812 L 66.664062 150.382812 L 76.554688 143.640625 L 111.527344 119.789062 L 111.527344 105.777344 L 101.632812 105.777344 L 101.632812 114.558594 L 76.554688 131.671875 L 76.554688 95.882812 L 111.527344 95.882812 L 111.527344 85.992188 Z M 82.132812 85.992188 " fill-opacity="1" fill-rule="evenodd"/></g><g clip-path="url(#0f4207bce5)"><path fill="#000000" d="M 66.664062 50.859375 L 66.664062 81.230469 L 62.148438 85.820312 L 52.257812 95.882812 L 52.257812 131.671875 L 27.167969 114.558594 L 27.167969 105.777344 L 17.285156 105.777344 L 17.285156 119.789062 L 52.257812 143.640625 L 62.148438 150.382812 L 62.148438 99.914062 L 66.664062 95.316406 L 76.554688 85.238281 L 76.554688 60.753906 L 101.632812 60.753906 L 101.632812 76.097656 L 111.527344 76.097656 L 111.527344 50.859375 Z M 66.664062 50.859375 " fill-opacity="1" fill-rule="evenodd"/></g><g fill="#ff3131" fill-opacity="1"><g transform="translate(123.720014, 106.739219)"><g><path d="M 30.25 0 L 15.375 0 L 15.375 -42.90625 L 1.921875 -42.90625 L 1.921875 -55.0625 L 43.65625 -55.0625 L 43.65625 -42.90625 L 30.25 -42.90625 Z M 30.25 0 "/></g></g></g><g fill="#ff3131" fill-opacity="1"><g transform="translate(169.295774, 106.739219)"><g><path d="M 5.953125 -55.0625 L 25.15625 -55.0625 C 32.644531 -55.0625 38.203125 -53.953125 41.828125 -51.734375 C 45.453125 -49.515625 47.265625 -46.054688 47.265625 -41.359375 C 47.265625 -38.265625 46.472656 -35.625 44.890625 -33.4375 C 43.316406 -31.257812 41.234375 -29.859375 38.640625 -29.234375 L 38.640625 -28.859375 C 42.054688 -27.953125 44.53125 -26.441406 46.0625 -24.328125 C 47.59375 -22.222656 48.359375 -19.488281 48.359375 -16.125 C 48.359375 -11.125 46.476562 -7.1875 42.71875 -4.3125 C 38.96875 -1.4375 33.859375 0 27.390625 0 L 5.953125 0 Z M 20.828125 -33.9375 L 25.3125 -33.9375 C 27.445312 -33.9375 29.097656 -34.375 30.265625 -35.25 C 31.429688 -36.132812 32.015625 -37.441406 32.015625 -39.171875 C 32.015625 -42.265625 29.679688 -43.8125 25.015625 -43.8125 L 20.828125 -43.8125 Z M 20.828125 -23.046875 L 20.828125 -11.484375 L 26.0625 -11.484375 C 30.707031 -11.484375 33.03125 -13.441406 33.03125 -17.359375 C 33.03125 -19.191406 32.40625 -20.597656 31.15625 -21.578125 C 29.914062 -22.554688 28.117188 -23.046875 25.765625 -23.046875 Z M 20.828125 -23.046875 "/></g></g></g><g fill="#ff3131" fill-opacity="1"><g transform="translate(221.27474, 106.739219)"><g><path d="M 30.46875 -43.65625 C 26.925781 -43.65625 24.160156 -42.203125 22.171875 -39.296875 C 20.191406 -36.398438 19.203125 -32.40625 19.203125 -27.3125 C 19.203125 -16.707031 23.234375 -11.40625 31.296875 -11.40625 C 33.734375 -11.40625 36.09375 -11.742188 38.375 -12.421875 C 40.664062 -13.109375 42.96875 -13.925781 45.28125 -14.875 L 45.28125 -2.296875 C 40.675781 -0.265625 35.476562 0.75 29.6875 0.75 C 21.375 0.75 15 -1.65625 10.5625 -6.46875 C 6.132812 -11.289062 3.921875 -18.265625 3.921875 -27.390625 C 3.921875 -33.085938 4.992188 -38.09375 7.140625 -42.40625 C 9.285156 -46.726562 12.375 -50.050781 16.40625 -52.375 C 20.4375 -54.695312 25.175781 -55.859375 30.625 -55.859375 C 36.570312 -55.859375 42.257812 -54.566406 47.6875 -51.984375 L 43.125 -40.265625 C 41.09375 -41.222656 39.054688 -42.023438 37.015625 -42.671875 C 34.984375 -43.328125 32.800781 -43.65625 30.46875 -43.65625 Z M 30.46875 -43.65625 "/></g></g></g><g fill="#000000" fill-opacity="1"><g transform="translate(139.345373, 120.528212)"><g><path d="M 5.1875 0 L 2.640625 0 L 2.640625 -7.375 L 0.328125 -7.375 L 0.328125 -9.453125 L 7.5 -9.453125 L 7.5 -7.375 L 5.1875 -7.375 Z M 5.1875 0 "/></g></g></g><g fill="#000000" fill-opacity="1"><g transform="translate(147.175317, 120.528212)"><g><path d="M 9.125 0 L 6.5625 0 L 6.5625 -3.859375 L 3.59375 -3.859375 L 3.59375 0 L 1.015625 0 L 1.015625 -9.453125 L 3.59375 -9.453125 L 3.59375 -5.953125 L 6.5625 -5.953125 L 6.5625 -9.453125 L 9.125 -9.453125 Z M 9.125 0 "/></g></g></g><g fill="#000000" fill-opacity="1"><g transform="translate(157.328359, 120.528212)"><g><path d="M 6.640625 0 L 1.015625 0 L 1.015625 -9.453125 L 6.640625 -9.453125 L 6.640625 -7.40625 L 3.578125 -7.40625 L 3.578125 -5.921875 L 6.40625 -5.921875 L 6.40625 -3.875 L 3.578125 -3.875 L 3.578125 -2.078125 L 6.640625 -2.078125 Z M 6.640625 0 "/></g></g></g><g fill="#000000" fill-opacity="1"><g transform="translate(164.601795, 120.528212)"><g/></g></g><g fill="#000000" fill-opacity="1"><g transform="translate(168.044382, 120.528212)"><g><path d="M 1.015625 -9.453125 L 4.328125 -9.453125 C 5.609375 -9.453125 6.5625 -9.257812 7.1875 -8.875 C 7.8125 -8.5 8.125 -7.910156 8.125 -7.109375 C 8.125 -6.578125 7.984375 -6.125 7.703125 -5.75 C 7.429688 -5.375 7.078125 -5.128906 6.640625 -5.015625 L 6.640625 -4.953125 C 7.222656 -4.796875 7.644531 -4.535156 7.90625 -4.171875 C 8.175781 -3.816406 8.3125 -3.347656 8.3125 -2.765625 C 8.3125 -1.910156 7.988281 -1.234375 7.34375 -0.734375 C 6.695312 -0.242188 5.816406 0 4.703125 0 L 1.015625 0 Z M 3.578125 -5.828125 L 4.34375 -5.828125 C 4.707031 -5.828125 4.988281 -5.898438 5.1875 -6.046875 C 5.394531 -6.203125 5.5 -6.429688 5.5 -6.734375 C 5.5 -7.265625 5.097656 -7.53125 4.296875 -7.53125 L 3.578125 -7.53125 Z M 3.578125 -3.953125 L 3.578125 -1.96875 L 4.484375 -1.96875 C 5.273438 -1.96875 5.671875 -2.304688 5.671875 -2.984375 C 5.671875 -3.296875 5.5625 -3.535156 5.34375 -3.703125 C 5.132812 -3.867188 4.828125 -3.953125 4.421875 -3.953125 Z M 3.578125 -3.953125 "/></g></g></g><g fill="#000000" fill-opacity="1"><g transform="translate(176.9744, 120.528212)"><g><path d="M 6.640625 0 L 1.015625 0 L 1.015625 -9.453125 L 6.640625 -9.453125 L 6.640625 -7.40625 L 3.578125 -7.40625 L 3.578125 -5.921875 L 6.40625 -5.921875 L 6.40625 -3.875 L 3.578125 -3.875 L 3.578125 -2.078125 L 6.640625 -2.078125 Z M 6.640625 0 "/></g></g></g><g fill="#000000" fill-opacity="1"><g transform="translate(184.247835, 120.528212)"><g><path d="M 10.03125 0 L 6.671875 0 L 3.21875 -6.65625 L 3.15625 -6.65625 C 3.238281 -5.613281 3.28125 -4.816406 3.28125 -4.265625 L 3.28125 0 L 1.015625 0 L 1.015625 -9.453125 L 4.359375 -9.453125 L 7.796875 -2.890625 L 7.84375 -2.890625 C 7.78125 -3.835938 7.75 -4.601562 7.75 -5.1875 L 7.75 -9.453125 L 10.03125 -9.453125 Z M 10.03125 0 "/></g></g></g><g fill="#000000" fill-opacity="1"><g transform="translate(195.300351, 120.528212)"><g/></g></g><g fill="#000000" fill-opacity="1"><g transform="translate(198.742938, 120.528212)"><g><path d="M 5.234375 -7.5 C 4.628906 -7.5 4.15625 -7.25 3.8125 -6.75 C 3.46875 -6.25 3.296875 -5.5625 3.296875 -4.6875 C 3.296875 -2.863281 3.988281 -1.953125 5.375 -1.953125 C 5.789062 -1.953125 6.195312 -2.007812 6.59375 -2.125 C 6.988281 -2.25 7.382812 -2.394531 7.78125 -2.5625 L 7.78125 -0.390625 C 6.988281 -0.046875 6.09375 0.125 5.09375 0.125 C 3.664062 0.125 2.570312 -0.285156 1.8125 -1.109375 C 1.050781 -1.941406 0.671875 -3.140625 0.671875 -4.703125 C 0.671875 -5.679688 0.851562 -6.539062 1.21875 -7.28125 C 1.59375 -8.019531 2.125 -8.585938 2.8125 -8.984375 C 3.507812 -9.390625 4.328125 -9.59375 5.265625 -9.59375 C 6.285156 -9.59375 7.257812 -9.367188 8.1875 -8.921875 L 7.40625 -6.921875 C 7.0625 -7.078125 6.710938 -7.210938 6.359375 -7.328125 C 6.003906 -7.441406 5.628906 -7.5 5.234375 -7.5 Z M 5.234375 -7.5 "/></g></g></g><g fill="#000000" fill-opacity="1"><g transform="translate(207.342934, 120.528212)"><g><path d="M 9.875 -4.75 C 9.875 -3.15625 9.484375 -1.941406 8.703125 -1.109375 C 7.921875 -0.285156 6.773438 0.125 5.265625 0.125 C 3.785156 0.125 2.648438 -0.289062 1.859375 -1.125 C 1.066406 -1.957031 0.671875 -3.164062 0.671875 -4.75 C 0.671875 -6.320312 1.0625 -7.523438 1.84375 -8.359375 C 2.632812 -9.191406 3.78125 -9.609375 5.28125 -9.609375 C 6.789062 -9.609375 7.929688 -9.195312 8.703125 -8.375 C 9.484375 -7.550781 9.875 -6.34375 9.875 -4.75 Z M 3.359375 -4.75 C 3.359375 -2.914062 3.992188 -2 5.265625 -2 C 5.921875 -2 6.40625 -2.21875 6.71875 -2.65625 C 7.03125 -3.101562 7.1875 -3.800781 7.1875 -4.75 C 7.1875 -5.6875 7.023438 -6.378906 6.703125 -6.828125 C 6.390625 -7.285156 5.914062 -7.515625 5.28125 -7.515625 C 4 -7.515625 3.359375 -6.59375 3.359375 -4.75 Z M 3.359375 -4.75 "/></g></g></g><g fill="#000000" fill-opacity="1"><g transform="translate(217.903651, 120.528212)"><g><path d="M 10.03125 0 L 6.671875 0 L 3.21875 -6.65625 L 3.15625 -6.65625 C 3.238281 -5.613281 3.28125 -4.816406 3.28125 -4.265625 L 3.28125 0 L 1.015625 0 L 1.015625 -9.453125 L 4.359375 -9.453125 L 7.796875 -2.890625 L 7.84375 -2.890625 C 7.78125 -3.835938 7.75 -4.601562 7.75 -5.1875 L 7.75 -9.453125 L 10.03125 -9.453125 Z M 10.03125 0 "/></g></g></g><g fill="#000000" fill-opacity="1"><g transform="translate(228.956167, 120.528212)"><g><path d="M 5.234375 -7.5 C 4.628906 -7.5 4.15625 -7.25 3.8125 -6.75 C 3.46875 -6.25 3.296875 -5.5625 3.296875 -4.6875 C 3.296875 -2.863281 3.988281 -1.953125 5.375 -1.953125 C 5.789062 -1.953125 6.195312 -2.007812 6.59375 -2.125 C 6.988281 -2.25 7.382812 -2.394531 7.78125 -2.5625 L 7.78125 -0.390625 C 6.988281 -0.046875 6.09375 0.125 5.09375 0.125 C 3.664062 0.125 2.570312 -0.285156 1.8125 -1.109375 C 1.050781 -1.941406 0.671875 -3.140625 0.671875 -4.703125 C 0.671875 -5.679688 0.851562 -6.539062 1.21875 -7.28125 C 1.59375 -8.019531 2.125 -8.585938 2.8125 -8.984375 C 3.507812 -9.390625 4.328125 -9.59375 5.265625 -9.59375 C 6.285156 -9.59375 7.257812 -9.367188 8.1875 -8.921875 L 7.40625 -6.921875 C 7.0625 -7.078125 6.710938 -7.210938 6.359375 -7.328125 C 6.003906 -7.441406 5.628906 -7.5 5.234375 -7.5 Z M 5.234375 -7.5 "/></g></g></g><g fill="#000000" fill-opacity="1"><g transform="translate(237.556159, 120.528212)"><g><path d="M 6.640625 0 L 1.015625 0 L 1.015625 -9.453125 L 6.640625 -9.453125 L 6.640625 -7.40625 L 3.578125 -7.40625 L 3.578125 -5.921875 L 6.40625 -5.921875 L 6.40625 -3.875 L 3.578125 -3.875 L 3.578125 -2.078125 L 6.640625 -2.078125 Z M 6.640625 0 "/></g></g></g><g fill="#000000" fill-opacity="1"><g transform="translate(244.829594, 120.528212)"><g><path d="M 7.890625 -6.453125 C 7.890625 -5.390625 7.578125 -4.570312 6.953125 -4 C 6.328125 -3.425781 5.441406 -3.140625 4.296875 -3.140625 L 3.578125 -3.140625 L 3.578125 0 L 1.015625 0 L 1.015625 -9.453125 L 4.296875 -9.453125 C 5.492188 -9.453125 6.390625 -9.191406 6.984375 -8.671875 C 7.585938 -8.148438 7.890625 -7.410156 7.890625 -6.453125 Z M 3.578125 -5.21875 L 4.046875 -5.21875 C 4.429688 -5.21875 4.734375 -5.328125 4.953125 -5.546875 C 5.179688 -5.765625 5.296875 -6.0625 5.296875 -6.4375 C 5.296875 -7.070312 4.941406 -7.390625 4.234375 -7.390625 L 3.578125 -7.390625 Z M 3.578125 -5.21875 "/></g></g></g><g fill="#000000" fill-opacity="1"><g transform="translate(253.203104, 120.528212)"><g><path d="M 5.1875 0 L 2.640625 0 L 2.640625 -7.375 L 0.328125 -7.375 L 0.328125 -9.453125 L 7.5 -9.453125 L 7.5 -7.375 L 5.1875 -7.375 Z M 5.1875 0 "/></g></g></g><g fill="#000000" fill-opacity="1"><g transform="translate(261.033048, 120.528212)"><g><path d="M 7.203125 -2.875 C 7.203125 -2.289062 7.050781 -1.769531 6.75 -1.3125 C 6.457031 -0.851562 6.03125 -0.5 5.46875 -0.25 C 4.90625 0 4.25 0.125 3.5 0.125 C 2.875 0.125 2.347656 0.0820312 1.921875 0 C 1.492188 -0.09375 1.046875 -0.25 0.578125 -0.46875 L 0.578125 -2.75 C 1.066406 -2.5 1.570312 -2.300781 2.09375 -2.15625 C 2.625 -2.019531 3.109375 -1.953125 3.546875 -1.953125 C 3.929688 -1.953125 4.210938 -2.015625 4.390625 -2.140625 C 4.566406 -2.273438 4.65625 -2.445312 4.65625 -2.65625 C 4.65625 -2.78125 4.617188 -2.890625 4.546875 -2.984375 C 4.472656 -3.085938 4.359375 -3.1875 4.203125 -3.28125 C 4.046875 -3.382812 3.625 -3.585938 2.9375 -3.890625 C 2.320312 -4.171875 1.859375 -4.441406 1.546875 -4.703125 C 1.242188 -4.972656 1.015625 -5.273438 0.859375 -5.609375 C 0.710938 -5.953125 0.640625 -6.359375 0.640625 -6.828125 C 0.640625 -7.691406 0.957031 -8.367188 1.59375 -8.859375 C 2.226562 -9.347656 3.101562 -9.59375 4.21875 -9.59375 C 5.195312 -9.59375 6.191406 -9.367188 7.203125 -8.921875 L 6.421875 -6.9375 C 5.535156 -7.34375 4.773438 -7.546875 4.140625 -7.546875 C 3.804688 -7.546875 3.5625 -7.488281 3.40625 -7.375 C 3.257812 -7.257812 3.1875 -7.113281 3.1875 -6.9375 C 3.1875 -6.75 3.28125 -6.582031 3.46875 -6.4375 C 3.664062 -6.289062 4.1875 -6.023438 5.03125 -5.640625 C 5.84375 -5.273438 6.40625 -4.878906 6.71875 -4.453125 C 7.039062 -4.035156 7.203125 -3.507812 7.203125 -2.875 Z M 7.203125 -2.875 "/></g></g></g><g fill="#000000" fill-opacity="1"><g transform="translate(268.683535, 120.528212)"><g/></g></g></svg>